<svg width="197" height="64" viewBox="0 0 197 64" fill="none" xmlns="http://www.w3.org/2000/svg">
<path d="M74.3011 10.0211C73.8724 8.35411 72.9524 6.67747 71.6496 5.52958C70.0465 4.12668 68.1239 3.41588 66.0102 3.2519C62.4303 2.9788 58.7678 4.58249 55.9801 6.71428C53.3105 8.75503 51.0877 11.351 49.6209 14.3847C48.136 17.4552 47.2618 20.8078 47.2889 24.2328C47.3161 27.6861 48.3729 31.1659 50.1587 34.1086C52.1355 37.3702 55.0052 40.1301 58.3307 41.9888C59.2959 42.5266 60.3256 42.9547 61.3554 43.3278C62.3296 43.6745 63.3322 43.7927 64.3613 43.8927C65.218 43.9747 66.0832 44.0025 66.9489 43.9476C67.723 43.9018 68.2789 43.7565 68.9806 43.4376C69.0258 43.4195 69.2447 43.3098 69.2899 43.2826C69.5636 43.1639 69.8367 43.0638 70.1098 42.9366C70.7657 42.6538 71.0847 41.7519 70.9936 41.105C70.8755 40.34 70.3835 39.839 69.6727 39.5749C69.5358 39.5201 69.3906 39.4742 69.2537 39.42C69.2356 39.4019 69.1988 39.3741 69.1349 39.329C68.7618 39.0552 68.2879 38.8732 67.8508 38.746C67.2039 38.5633 66.5661 38.3812 65.9373 38.1443C65.874 38.1171 65.8101 38.09 65.7461 38.0713C65.7281 38.0623 65.71 38.0532 65.701 38.0532C65.619 38.008 65.546 37.9803 65.555 37.9803C65.2542 37.8441 64.9721 37.6891 64.6712 37.5432C64.3613 37.3883 64.0062 37.2514 63.6692 37.1242C63.3503 36.9783 63.0404 36.8324 62.7396 36.6775C62.1656 36.3772 61.6014 36.0764 61.0455 35.7394C60.7627 35.5573 60.4716 35.3746 60.1978 35.1835C60.0797 35.1106 59.9706 35.0286 59.8608 34.9556C59.8066 34.9104 59.7517 34.8646 59.6878 34.8284C58.6949 34.0085 57.802 33.1157 56.9549 32.1317C56.964 32.1589 56.9821 32.186 57.0001 32.2137C56.973 32.1769 56.9549 32.1408 56.9278 32.104C56.9001 32.0678 56.873 32.0407 56.8458 32.013C56.8181 31.9768 56.791 31.94 56.7729 31.9038C56.7451 31.8767 56.718 31.8399 56.6999 31.8128C56.5179 31.5668 56.3442 31.3118 56.1802 31.0568C55.7799 30.428 55.4152 29.7811 55.0962 29.1161C55.051 29.0161 55.0052 28.916 54.96 28.8243C54.8684 28.5603 54.7683 28.3052 54.6772 28.0412C54.4493 27.3762 54.2763 26.6925 54.1395 26.0095C57.2009 25.9824 60.2895 25.5356 63.2225 24.7157C66.375 23.8415 69.5359 22.4199 71.7316 19.915C74.1274 17.1724 75.2301 13.6016 74.3011 10.0211V10.0211ZM65.9192 38.1443C65.9192 38.1443 65.874 38.1262 65.8191 38.0991C65.8462 38.1172 65.883 38.1262 65.9192 38.1443ZM68.224 9.41096C68.1698 9.37416 68.1239 9.33801 68.1149 9.33801C68.142 9.34705 68.1878 9.37416 68.224 9.41096ZM69.8005 13.7468C69.7909 13.8108 69.7637 14.0845 69.7547 14.1297C69.7457 14.1755 69.7457 14.2207 69.7366 14.2666C69.6637 14.5945 69.5817 14.9135 69.4726 15.2324C69.4358 15.3144 69.4087 15.4054 69.3719 15.4874C69.3809 15.4596 69.1988 15.8793 69.1627 15.9516C68.9897 16.2892 68.7889 16.6263 68.5707 16.9452C68.5978 16.9174 68.4157 17.1724 68.3518 17.2635C68.2698 17.3551 68.051 17.6192 68.0058 17.6831C67.486 18.2661 66.9212 18.8123 66.3201 19.3042C65.3911 20.0789 63.9882 20.835 62.8035 21.2539C59.9706 22.2559 56.9369 22.8667 53.9212 23.1217C53.9212 22.9667 53.9303 22.8118 53.9303 22.6568C53.9484 22.3289 53.9664 22.0009 54.0032 21.6729C54.0032 21.5819 54.0213 21.4999 54.0303 21.4089C54.1491 20.7439 54.2673 20.0789 54.4493 19.423C54.6133 18.8213 54.8051 18.2202 55.0323 17.6373C55.042 17.6102 55.0601 17.5733 55.0782 17.5372C55.0691 17.5094 55.0872 17.4642 55.124 17.3732C55.1511 17.3183 55.1782 17.2635 55.206 17.2002C55.206 17.1912 55.215 17.1815 55.215 17.1724C55.215 17.1815 55.215 17.1912 55.215 17.2002C55.3513 16.8993 55.4881 16.5985 55.6431 16.2983C55.953 15.7147 56.29 15.1407 56.6541 14.5945C56.809 14.3486 56.973 14.1116 57.146 13.8747C57.128 13.8928 57.1189 13.9108 57.1008 13.9296C57.1189 13.9018 57.137 13.8837 57.1641 13.8566C57.1919 13.8198 57.228 13.7836 57.2558 13.7378C57.3281 13.6468 57.4011 13.5558 57.474 13.4647C57.902 12.9637 58.3578 12.4808 58.8317 12.025C59.0409 11.8249 59.2688 11.6247 59.4876 11.433C59.6148 11.3239 59.7427 11.2238 59.8698 11.1141L59.8795 11.105C59.8886 11.096 59.8886 11.096 59.8976 11.096C60.4348 10.7132 60.9816 10.34 61.5555 10.0211C61.8654 9.84804 62.1753 9.68406 62.4936 9.52911C62.5575 9.502 62.6124 9.47424 62.6673 9.44712C62.6853 9.44712 63.0133 9.31025 63.1134 9.28313C63.4775 9.14627 63.8513 9.03716 64.2341 8.93709C64.4252 8.89125 64.6073 8.84606 64.799 8.80926C64.8991 8.79119 65.1361 8.75503 65.1541 8.75503C65.4363 8.72727 65.719 8.71823 66.0102 8.71823C66.1561 8.71823 66.311 8.73631 66.457 8.73631C66.4931 8.74535 66.5209 8.74535 66.548 8.74535C66.5751 8.74535 66.6029 8.75504 66.63 8.76407C66.9212 8.84607 67.213 8.90933 67.4951 9.01005C67.5409 9.03716 67.7049 9.11915 67.7779 9.15531C67.9238 9.2373 68.051 9.31929 68.1878 9.40129C68.233 9.43809 68.2698 9.45616 68.2969 9.47424C68.388 9.55623 68.47 9.66598 68.5248 9.72021C68.6159 9.8022 68.6978 9.90292 68.7798 9.99395C68.7979 10.012 68.807 10.0211 68.8257 10.0301C68.8347 10.0391 68.8347 10.0482 68.8438 10.0669C69.0077 10.331 69.1808 10.595 69.3267 10.8771C69.3906 10.9959 69.5817 11.5699 69.3809 10.9778C69.4267 11.096 69.4726 11.2148 69.5087 11.342C69.6088 11.6428 69.6908 11.9527 69.7547 12.271C69.7547 12.3078 69.7638 12.353 69.7728 12.3898C69.7638 12.3988 69.8096 12.7726 69.8096 12.8727C69.8186 13.1639 69.8186 13.4557 69.8005 13.7468V13.7468ZM118.666 0.191079C117.209 -0.337026 116.243 0.300185 115.186 1.2389C114.548 1.79476 113.92 2.36871 113.3 2.94265C112.152 4.00854 111.123 5.18354 110.111 6.3863C107.953 8.95517 105.912 11.6338 103.99 14.3937C100.2 19.851 97.0477 25.6634 94.2419 31.6759C93.8319 32.5688 93.4219 33.4617 93.021 34.3636C92.2831 32.1769 91.5994 29.9632 90.9803 27.7313C89.5593 22.6297 88.3197 17.4642 87.3907 12.2439C87.1357 10.759 86.8897 9.26506 86.6799 7.76145C86.6618 7.61619 86.5798 7.00544 86.5798 7.0332C86.5437 6.74139 86.5069 6.45926 86.4707 6.17648C86.3519 5.16546 86.1428 4.29971 85.7509 3.36165C85.3319 2.34094 84.4939 1.43 83.2821 1.48487C82.1794 1.53007 81.0773 2.23184 80.8133 3.36165C80.5944 4.28163 80.4033 5.22938 80.4763 6.17648C80.5305 6.97832 80.5944 7.78017 80.6674 8.57232C80.8042 10.176 80.9773 11.77 81.1774 13.3556C81.6054 16.7444 82.1251 20.1241 82.7901 23.4768C83.4002 26.5744 84.2389 29.6442 85.1408 32.6689C86.0427 35.7026 87.0079 38.746 88.1835 41.6699C88.7484 43.0728 89.4586 44.4215 90.9254 45.0406C91.2172 45.1685 91.5174 45.2595 91.8273 45.3144C92.5472 45.6966 93.422 45.6966 94.351 45.2956C96.5557 44.3214 97.1936 42.0347 98.0497 39.9939C98.1956 39.6292 98.3505 39.265 98.4964 38.91C98.5145 38.8822 98.5235 38.8641 98.5326 38.828C98.6055 38.664 98.6694 38.5 98.7424 38.336C99.0975 37.5064 99.4525 36.6865 99.8173 35.8666C101.156 32.8238 102.586 29.836 104.072 26.8752C106.987 21.0448 110.403 15.4874 114.357 10.3032C114.403 10.249 114.503 10.1121 114.558 10.0391C114.676 9.8842 114.794 9.72925 114.922 9.58399C115.186 9.24698 115.45 8.91901 115.715 8.58136C115.915 8.32635 116.116 8.0623 116.316 7.80728C116.389 7.70721 116.79 7.1875 116.498 7.57034C116.872 7.07839 117.236 6.59548 117.591 6.09449C118.111 5.38368 118.648 4.70063 119.167 3.98982C119.559 3.47075 119.85 2.88777 119.878 2.2228C119.914 1.41192 119.431 0.473854 118.666 0.191079V0.191079ZM126.773 11.1599C125.015 11.0689 124.368 13.0909 123.758 14.3757C123.138 15.6785 122.537 16.9994 122.045 18.3571C121.116 20.9079 120.396 23.5497 119.74 26.1735C119.075 28.8062 118.537 31.4668 118.118 34.1544C117.881 35.6574 117.681 37.1694 117.508 38.673C117.417 39.3832 117.344 40.103 117.28 40.8138C117.189 41.7067 117.052 42.6177 117.362 43.4918C117.772 44.6584 118.637 45.5055 119.895 45.6785C121.015 45.8244 122.419 45.3144 122.938 44.2207C123.275 43.5105 123.43 42.9276 123.494 42.1438C123.521 41.7887 123.53 41.433 123.548 41.0779C123.576 40.3671 123.621 39.6569 123.667 38.9461C123.758 37.6071 123.876 36.2765 124.031 34.9556C124.095 34.3184 124.177 33.6806 124.259 33.0427C124.268 32.9607 124.35 32.3777 124.359 32.2957C124.414 31.94 124.468 31.5849 124.514 31.2298C124.714 29.8999 124.942 28.5783 125.188 27.2665C125.716 24.5427 126.436 21.8828 127.064 19.1951C127.374 17.8923 127.657 16.5894 127.975 15.2957C128.158 14.5397 128.44 13.7656 128.385 12.9818C128.322 12.0889 127.72 11.2148 126.773 11.1599V11.1599ZM131.921 6.41342C131.875 6.10353 131.839 5.79364 131.793 5.4844C131.629 4.89173 131.328 4.3817 130.9 3.94463C130.663 3.76257 130.426 3.57986 130.189 3.3978C129.643 3.07887 129.06 2.92392 128.431 2.92392C127.948 2.90585 127.502 3.00592 127.083 3.22478C126.654 3.36165 126.281 3.60762 125.962 3.94463C125.625 4.26356 125.379 4.63672 125.243 5.0654C125.024 5.4844 124.924 5.93051 124.942 6.41342C124.988 6.72331 125.024 7.0332 125.07 7.33341C125.234 7.92543 125.534 8.44514 125.962 8.87318C126.199 9.05524 126.436 9.2373 126.673 9.42C127.21 9.73893 127.802 9.89323 128.431 9.90291C128.914 9.92099 129.36 9.82093 129.77 9.60207C130.208 9.45616 130.581 9.21922 130.9 8.87318C131.237 8.56329 131.474 8.19013 131.62 7.75241C131.839 7.34245 131.939 6.8873 131.921 6.41342V6.41342ZM160.58 13.8108C161.965 14.9496 163.987 13.9018 163.595 12.0618C163.531 11.761 163.468 11.4511 163.367 11.1599C163.295 10.923 163.176 10.686 163.076 10.4581C163.112 10.5401 162.876 10.003 162.775 9.839C162.329 9.13723 161.773 8.47225 161.227 7.85312C160.124 6.61356 158.821 5.54767 157.427 4.65544C155.988 3.73481 154.366 2.95169 152.69 2.61468C150.959 2.25896 149.283 2.2228 147.543 2.4507C144.327 2.88777 140.975 4.36362 139.207 7.2243C137.093 10.6408 138.542 14.6765 141.139 17.3642C143.735 20.0331 147.224 21.4547 150.367 23.3309C150.987 23.7047 151.697 24.0785 152.253 24.5607C152.317 24.6156 152.39 24.6795 152.435 24.7247C152.59 24.8435 152.736 24.9707 152.882 25.0985C153.237 25.3994 153.574 25.7183 153.893 26.0463C154.157 26.3194 154.412 26.5925 154.658 26.8843C154.658 26.8933 154.694 26.9295 154.74 26.9843C154.794 27.0573 154.977 27.2852 154.986 27.3033C155.432 27.9321 155.796 28.5971 156.143 29.2891C156.188 29.4441 156.252 29.599 156.307 29.763C156.416 30.082 156.498 30.4099 156.571 30.7469C156.58 30.7921 156.589 30.838 156.598 30.8838C156.607 30.9658 156.626 31.0568 156.635 31.102C156.662 31.4758 156.662 31.858 156.635 32.2318C156.635 32.2499 156.635 32.2957 156.626 32.35C156.616 32.4229 156.598 32.5049 156.598 32.5327C156.534 32.8419 156.443 33.1518 156.352 33.4527C156.316 33.5437 156.188 33.7716 156.161 33.9175C155.997 34.2177 155.842 34.5095 155.66 34.8007C155.642 34.8284 155.45 35.0925 155.368 35.2203C155.168 35.4476 154.977 35.6664 154.758 35.8763C154.512 36.1126 154.211 36.3133 153.975 36.5683C154.011 36.5225 154.048 36.4864 154.075 36.4592C154.029 36.4954 153.984 36.5412 153.938 36.5683C153.756 36.6865 153.574 36.8053 153.383 36.9144C153.073 37.1061 152.745 37.2701 152.417 37.4341C152.28 37.4793 152.144 37.5342 152.016 37.5794C151.397 37.7892 150.75 37.8802 150.121 38.0261C150.085 38.0442 149.893 38.1081 149.729 38.1262C149.72 38.1352 149.702 38.1352 149.684 38.1443C149.702 38.1352 149.711 38.1352 149.729 38.1352C149.72 38.1352 149.702 38.1352 149.693 38.1352C149.474 38.1533 149.247 38.172 149.028 38.1901C148.572 38.2082 148.126 38.2082 147.679 38.1991C147.297 38.1901 146.905 38.1623 146.522 38.1352C146.349 38.0532 145.839 38.0442 145.684 38.0081C144.901 37.8531 144.145 37.6162 143.389 37.3424C143.17 37.2243 142.942 37.1242 142.724 37.0054C142.369 36.8053 142.031 36.5774 141.694 36.3585C141.685 36.3495 141.676 36.3495 141.676 36.3404C141.521 36.2133 141.366 36.0764 141.221 35.9395C140.938 35.6755 140.674 35.3933 140.428 35.1015C140.419 35.0925 140.419 35.0835 140.41 35.0744C140.309 34.9104 140.191 34.7465 140.091 34.5734C139.945 34.3365 139.38 33.1066 139.827 34.1725C139.699 33.8626 139.07 32.7696 139.508 33.4159C139.626 33.6986 139.644 33.7167 139.544 33.4617C139.417 33.1337 139.28 32.8058 139.134 32.4868C139.079 32.3777 139.025 32.2777 138.97 32.1679C138.906 32.0498 138.87 31.9858 138.843 31.9497C138.751 31.6579 138.669 31.3757 138.587 31.0839C138.597 30.8838 138.624 30.5558 138.633 30.51C138.788 28.1871 135.262 27.2574 134.224 29.3163C134.16 29.4531 134.096 29.581 134.032 29.7172C134.16 29.4441 133.531 31.0381 133.741 30.428C133.923 29.8999 133.541 30.8838 133.468 31.0839C133.404 31.2479 133.34 31.4209 133.295 31.594C133.185 31.931 133.112 32.2776 133.067 32.6237C133.058 32.6689 133.058 32.7057 133.049 32.7509C133.04 32.8606 133.021 32.9697 133.012 33.0788C133.021 32.9697 133.03 32.8787 133.04 32.8058C132.948 33.1976 132.876 33.7535 132.903 34.1815C133.003 36.2494 134.16 38.1172 135.426 39.684C137.64 42.4169 141.111 44.1297 144.545 44.6675C148.308 45.2595 152.071 44.8405 155.514 43.1638C158.721 41.597 161.236 38.6821 162.293 35.2836C163.34 31.931 162.73 28.3052 161.008 25.2896C159.186 22.0919 156.279 19.6509 153.137 17.8193C151.552 16.8993 149.893 16.0885 148.317 15.1407C147.953 14.9315 147.597 14.7036 147.242 14.4757C147.069 14.3576 146.905 14.2388 146.732 14.1207C146.686 14.0845 146.595 14.0387 146.531 13.9928C146.276 13.8017 146.039 13.5558 145.812 13.3369C145.739 13.2736 145.074 12.4627 144.919 12.353C144.892 12.3259 144.873 12.2897 144.846 12.262C144.773 12.1438 144.7 12.025 144.627 11.8978C144.6 11.861 144.518 11.7339 144.445 11.606C144.436 11.5608 144.427 11.506 144.4 11.4149C144.391 11.3878 144.372 11.2781 144.345 11.169C144.354 11.3239 144.318 11.442 144.309 11.0689C144.309 11.0508 144.309 11.0321 144.309 11.014C144.3 10.9688 144.281 10.932 144.281 10.932C144.29 10.9411 144.3 10.9501 144.309 10.9778C144.318 10.9049 144.327 10.8229 144.336 10.7499C144.327 10.759 144.318 10.75 144.318 10.7228C144.327 10.7041 144.327 10.6951 144.336 10.677C144.336 10.668 144.336 10.668 144.336 10.6589C144.345 10.6312 144.354 10.586 144.372 10.5492C144.4 10.4769 144.427 10.4129 144.445 10.34C144.445 10.34 144.445 10.34 144.454 10.34C144.445 10.3761 144.436 10.4129 144.427 10.4401C144.473 10.3671 144.518 10.2942 144.564 10.2212C144.737 10.0391 144.901 9.85708 145.092 9.68406C145.11 9.66598 145.183 9.6111 145.247 9.55622C145.338 9.49296 145.429 9.42904 145.456 9.41096C145.766 9.21018 146.094 9.03716 146.431 8.87318C146.422 8.87318 146.55 8.82734 146.65 8.78214C146.759 8.73631 146.859 8.70015 146.969 8.66336C147.351 8.53617 147.743 8.42706 148.126 8.34507C148.263 8.31731 148.39 8.28116 148.527 8.26308C148.618 8.24436 148.709 8.22628 148.8 8.2082C149.611 8.14429 150.395 8.14429 151.205 8.2082C151.752 8.24435 151.078 8.17141 151.032 8.18109C151.278 8.13525 151.697 8.30827 151.943 8.35411C152.381 8.44514 152.827 8.53617 153.264 8.65432C153.683 8.77311 154.102 8.91901 154.512 9.06427C154.53 9.07331 154.549 9.083 154.567 9.09204C154.804 9.20115 155.031 9.31025 155.259 9.42904C155.632 9.62918 156.006 9.84804 156.361 10.085C156.48 10.1579 156.598 10.2399 156.708 10.3129C156.771 10.3581 157.2 10.6951 157.19 10.677C157.755 11.1418 158.284 11.6338 158.785 12.1709C159.058 12.4627 159.322 12.7358 159.623 13.0186C159.742 13.1277 159.86 13.2368 159.978 13.3369C160.434 13.6926 160.534 13.7656 160.288 13.5738C160.389 13.6558 160.48 13.7288 160.58 13.8108V13.8108ZM138.615 31.2389C138.597 31.2298 138.597 31.184 138.587 31.1201C138.606 31.184 138.615 31.2389 138.615 31.2389ZM146.331 38.1262C145.912 38.0991 146.149 38.0991 146.358 38.1262C146.349 38.1262 146.34 38.1262 146.331 38.1262ZM155.45 35.1286C155.432 35.1383 155.423 35.1564 155.405 35.1745C155.532 35.0195 155.733 34.8104 155.45 35.1286ZM156.288 33.6806C156.325 33.5986 156.343 33.5618 156.288 33.6806V33.6806ZM154.576 9.09204C154.694 9.14627 154.867 9.22826 154.576 9.09204V9.09204ZM196.3 10.0211C195.871 8.35411 194.951 6.67747 193.648 5.52958C192.045 4.12668 190.123 3.41588 188.009 3.2519C184.429 2.9788 180.767 4.58249 177.979 6.71428C175.309 8.75503 173.086 11.351 171.62 14.3847C170.135 17.4552 169.261 20.8078 169.288 24.2328C169.315 27.6861 170.372 31.1659 172.157 34.1086C174.134 37.3702 177.004 40.1301 180.329 41.9888C181.295 42.5266 182.324 42.9547 183.354 43.3278C184.328 43.6745 185.331 43.7927 186.36 43.8927C187.217 43.9747 188.082 44.0025 188.948 43.9476C189.722 43.9018 190.278 43.7565 190.979 43.4376C191.025 43.4195 191.243 43.3098 191.289 43.2826C191.562 43.1639 191.835 43.0638 192.109 42.9366C192.764 42.6538 193.083 41.7519 192.992 41.105C192.874 40.34 192.382 39.839 191.671 39.5749C191.535 39.5201 191.389 39.4742 191.252 39.42C191.234 39.4019 191.198 39.3741 191.134 39.329C190.76 39.0552 190.287 38.8732 189.85 38.746C189.203 38.5633 188.565 38.3812 187.936 38.1443C187.873 38.1171 187.809 38.09 187.745 38.0713C187.727 38.0623 187.709 38.0532 187.7 38.0532C187.618 38.008 187.545 37.9803 187.554 37.9803C187.253 37.8441 186.971 37.6891 186.67 37.5432C186.36 37.3883 186.005 37.2514 185.668 37.1242C185.349 36.9783 185.039 36.8324 184.738 36.6775C184.164 36.3772 183.6 36.0764 183.044 35.7394C182.761 35.5573 182.47 35.3746 182.197 35.1835C182.078 35.1106 181.969 35.0286 181.86 34.9556C181.805 34.9104 181.75 34.8646 181.687 34.8284C180.694 34.0085 179.801 33.1157 178.954 32.1317C178.963 32.1589 178.981 32.186 178.999 32.2137C178.972 32.1769 178.954 32.1408 178.927 32.104C178.899 32.0678 178.872 32.0407 178.845 32.013C178.817 31.9768 178.79 31.94 178.772 31.9038C178.744 31.8767 178.717 31.8399 178.699 31.8128C178.517 31.5668 178.343 31.3118 178.179 31.0568C177.779 30.428 177.414 29.7811 177.095 29.1161C177.05 29.0161 177.004 28.916 176.959 28.8243C176.867 28.5603 176.767 28.3052 176.676 28.0412C176.448 27.3762 176.275 26.6925 176.138 26.0095C179.2 25.9824 182.288 25.5356 185.221 24.7157C188.374 23.8415 191.535 22.4199 193.73 19.915C196.126 17.1724 197.229 13.6016 196.3 10.0211V10.0211ZM187.918 38.1443C187.918 38.1443 187.873 38.1262 187.818 38.0991C187.845 38.1172 187.882 38.1262 187.918 38.1443ZM190.223 9.41096C190.168 9.37416 190.123 9.33801 190.114 9.33801C190.141 9.34705 190.187 9.37416 190.223 9.41096ZM191.799 13.7468C191.79 13.8108 191.762 14.0845 191.753 14.1297C191.744 14.1755 191.744 14.2207 191.735 14.2666C191.662 14.5945 191.58 14.9135 191.471 15.2324C191.435 15.3144 191.407 15.4054 191.371 15.4874C191.38 15.4596 191.198 15.8793 191.161 15.9516C190.988 16.2892 190.788 16.6263 190.569 16.9452C190.596 16.9174 190.414 17.1724 190.351 17.2635C190.269 17.3551 190.05 17.6192 190.004 17.6831C189.485 18.2661 188.92 18.8123 188.319 19.3042C187.39 20.0789 185.987 20.835 184.802 21.2539C181.969 22.2559 178.936 22.8667 175.92 23.1217C175.92 22.9667 175.929 22.8118 175.929 22.6568C175.947 22.3289 175.965 22.0009 176.002 21.6729C176.002 21.5819 176.02 21.4999 176.029 21.4089C176.148 20.7439 176.266 20.0789 176.448 19.423C176.612 18.8213 176.804 18.2202 177.031 17.6373C177.041 17.6102 177.059 17.5733 177.077 17.5372C177.068 17.5094 177.086 17.4642 177.123 17.3732C177.15 17.3183 177.177 17.2635 177.205 17.2002C177.205 17.1912 177.214 17.1815 177.214 17.1724C177.214 17.1815 177.214 17.1912 177.214 17.2002C177.35 16.8993 177.487 16.5985 177.642 16.2983C177.952 15.7147 178.289 15.1407 178.653 14.5945C178.808 14.3486 178.972 14.1116 179.145 13.8747C179.127 13.8928 179.118 13.9108 179.1 13.9296C179.118 13.9018 179.136 13.8837 179.163 13.8566C179.191 13.8198 179.227 13.7836 179.255 13.7378C179.327 13.6468 179.4 13.5558 179.473 13.4647C179.901 12.9637 180.357 12.4808 180.83 12.025C181.04 11.8249 181.268 11.6247 181.486 11.433C181.614 11.3239 181.741 11.2238 181.869 11.1141L181.878 11.105C181.887 11.096 181.887 11.096 181.896 11.096C182.433 10.7132 182.98 10.34 183.554 10.0211C183.864 9.84804 184.174 9.68406 184.492 9.52911C184.556 9.502 184.611 9.47424 184.666 9.44712C184.684 9.44712 185.012 9.31025 185.112 9.28313C185.476 9.14627 185.85 9.03716 186.233 8.93709C186.424 8.89125 186.606 8.84606 186.798 8.80926C186.898 8.79119 187.135 8.75503 187.153 8.75503C187.435 8.72727 187.718 8.71823 188.009 8.71823C188.155 8.71823 188.31 8.73631 188.456 8.73631C188.492 8.74535 188.52 8.74535 188.547 8.74535C188.574 8.74535 188.602 8.75504 188.629 8.76407C188.92 8.84607 189.212 8.90933 189.494 9.01005C189.54 9.03716 189.704 9.11915 189.777 9.15531C189.922 9.2373 190.05 9.31929 190.187 9.40129C190.232 9.43809 190.269 9.45616 190.296 9.47424C190.387 9.55623 190.469 9.66598 190.524 9.72021C190.615 9.8022 190.697 9.90292 190.779 9.99395C190.797 10.012 190.806 10.0211 190.824 10.0301C190.833 10.0391 190.833 10.0482 190.842 10.0669C191.006 10.331 191.179 10.595 191.325 10.8771C191.389 10.9959 191.58 11.5699 191.38 10.9778C191.425 11.096 191.471 11.2148 191.507 11.342C191.608 11.6428 191.69 11.9527 191.753 12.271C191.753 12.3078 191.762 12.353 191.772 12.3898C191.762 12.3988 191.808 12.7726 191.808 12.8727C191.817 13.1639 191.817 13.4557 191.799 13.7468V13.7468Z" fill="#2DC2C3"/>
<path d="M41.734 5.95795C40.1032 4.35492 37.9985 3.18896 35.7208 2.87003C33.17 2.50526 30.5282 2.87907 28.2415 4.09991C26.2827 5.14772 24.6248 6.69588 23.24 8.42739C23.2761 8.10846 23.3039 7.79858 23.331 7.47965C23.4498 5.91276 23.832 4.12702 23.3859 2.59629C22.8849 0.920299 20.7621 0.774389 19.8325 2.14114C19.0493 3.27094 18.8763 4.80103 18.5574 6.12194C18.2475 7.40669 17.9925 8.70953 17.7465 10.0124C17.2365 12.6542 16.7168 15.305 16.2526 17.9656C15.3229 23.2402 14.3939 28.5154 13.4649 33.79C12.9361 36.7785 12.4441 39.7754 11.9703 42.7729C11.834 43.6561 11.825 44.458 12.2982 45.2598C12.6901 45.9338 13.4558 46.5717 14.2299 46.7447C15.7697 47.0908 17.9105 46.2708 18.1926 44.4857C19.8053 34.3188 21.2631 24.0969 22.5569 13.875C23.1308 13.0002 23.759 12.1713 24.4698 11.4062C25.9276 9.83933 27.5855 8.68241 29.5624 8.11751C30.0724 7.9716 30.6011 7.85345 31.1292 7.7437C31.2661 7.72562 31.403 7.69851 31.5392 7.67075C31.8401 7.64363 32.1409 7.62555 32.4411 7.61652C32.7052 7.61652 32.9699 7.61652 33.2339 7.6346C33.343 7.64363 33.4618 7.66171 33.5709 7.66171C33.58 7.66171 33.58 7.66171 33.58 7.66171C34.1449 7.78954 34.6827 7.91672 35.2288 8.10847H35.2379C35.2656 8.12654 35.2928 8.13558 35.3289 8.1627C35.5387 8.26341 35.7576 8.36348 35.9577 8.48163C36.1676 8.60042 36.3677 8.71856 36.5588 8.85543C36.5866 8.86447 36.6685 8.92838 36.7505 8.98261C36.7686 9.00133 36.7867 9.01942 36.8048 9.03749C37.1605 9.35642 37.4794 9.68439 37.8074 10.0304C37.8255 10.0576 37.8435 10.0763 37.8616 10.0943C37.8803 10.1124 37.8984 10.1395 37.9255 10.1763C38.0805 10.3952 38.2264 10.6225 38.3536 10.8594C38.4724 11.0602 38.5815 11.2784 38.6906 11.4882C38.7003 11.4972 38.7003 11.5063 38.7093 11.5244C38.9366 12.1803 39.1193 12.8453 39.4653 13.456C39.9844 14.376 40.6681 15.059 41.7611 15.214C43.4829 15.4419 44.6489 14.0751 44.8219 12.4812C45.0866 10.1034 43.3738 7.57067 41.734 5.95795V5.95795ZM36.8145 9.02845C36.8596 9.05557 36.8964 9.08333 36.8964 9.09237C36.8868 9.09237 36.8506 9.06461 36.8145 9.02845Z" fill="#2D3D88"/>
<path fill-rule="evenodd" clip-rule="evenodd" d="M5.23147 63.3807L38.6483 55.5909C40.7671 55.1666 42.1531 53.0866 41.7288 50.9677C41.3046 48.8489 39.2246 47.4629 37.1057 47.8872L4.71492 52.3718C2.59604 52.7961 0.732276 56.973 1.15655 59.0918C1.58083 61.2107 3.11259 63.805 5.23147 63.3807Z" fill="#2D3D88"/>
</svg>
